<svg viewBox="0 0 560 380" xmlns="http://www.w3.org/2000/svg" font-family="ui-sans-serif, system-ui, sans-serif">
  <rect width="560" height="380" fill="#f8fafc"/>
  <text x="280" y="34" text-anchor="middle" font-size="19" font-weight="800" fill="#0f172a">Causal Mask: no peeking at the future</text>
  <text x="280" y="56" text-anchor="middle" font-size="12" fill="#64748b">Row = the word doing the looking · Column = what it can see</text>
  <g font-size="11" text-anchor="middle" fill="#475569">
    <text x="140" y="90">The</text><text x="200" y="90">cat</text><text x="260" y="90">sat</text><text x="320" y="90">on</text><text x="380" y="90">mat</text>
  </g>
  <text x="80" y="130" font-size="11" text-anchor="middle" fill="#475569">The</text>
  <rect x="115" y="100" width="50" height="44" rx="5" fill="#16a34a" opacity="0.85"/><text x="140" y="128" text-anchor="middle" font-size="13" fill="#fff">✓</text>
  <rect x="175" y="100" width="50" height="44" rx="5" fill="#e2e8f0"/><text x="200" y="128" text-anchor="middle" font-size="13" fill="#94a3b8">✕</text>
  <rect x="235" y="100" width="50" height="44" rx="5" fill="#e2e8f0"/><text x="260" y="128" text-anchor="middle" font-size="13" fill="#94a3b8">✕</text>
  <rect x="295" y="100" width="50" height="44" rx="5" fill="#e2e8f0"/><text x="320" y="128" text-anchor="middle" font-size="13" fill="#94a3b8">✕</text>
  <rect x="355" y="100" width="50" height="44" rx="5" fill="#e2e8f0"/><text x="380" y="128" text-anchor="middle" font-size="13" fill="#94a3b8">✕</text>
  <text x="80" y="180" font-size="11" text-anchor="middle" fill="#475569">cat</text>
  <rect x="115" y="150" width="50" height="44" rx="5" fill="#16a34a" opacity="0.85"/><text x="140" y="178" text-anchor="middle" font-size="13" fill="#fff">✓</text>
  <rect x="175" y="150" width="50" height="44" rx="5" fill="#16a34a" opacity="0.85"/><text x="200" y="178" text-anchor="middle" font-size="13" fill="#fff">✓</text>
  <rect x="235" y="150" width="50" height="44" rx="5" fill="#e2e8f0"/><text x="260" y="178" text-anchor="middle" font-size="13" fill="#94a3b8">✕</text>
  <rect x="295" y="150" width="50" height="44" rx="5" fill="#e2e8f0"/><text x="320" y="178" text-anchor="middle" font-size="13" fill="#94a3b8">✕</text>
  <rect x="355" y="150" width="50" height="44" rx="5" fill="#e2e8f0"/><text x="380" y="178" text-anchor="middle" font-size="13" fill="#94a3b8">✕</text>
  <text x="80" y="230" font-size="11" text-anchor="middle" fill="#475569">sat</text>
  <rect x="115" y="200" width="50" height="44" rx="5" fill="#16a34a" opacity="0.85"/><text x="140" y="228" text-anchor="middle" font-size="13" fill="#fff">✓</text>
  <rect x="175" y="200" width="50" height="44" rx="5" fill="#16a34a" opacity="0.85"/><text x="200" y="228" text-anchor="middle" font-size="13" fill="#fff">✓</text>
  <rect x="235" y="200" width="50" height="44" rx="5" fill="#16a34a" opacity="0.85"/><text x="260" y="228" text-anchor="middle" font-size="13" fill="#fff">✓</text>
  <rect x="295" y="200" width="50" height="44" rx="5" fill="#e2e8f0"/><text x="320" y="228" text-anchor="middle" font-size="13" fill="#94a3b8">✕</text>
  <rect x="355" y="200" width="50" height="44" rx="5" fill="#e2e8f0"/><text x="380" y="228" text-anchor="middle" font-size="13" fill="#94a3b8">✕</text>
  <text x="80" y="280" font-size="11" text-anchor="middle" fill="#475569">on</text>
  <rect x="115" y="250" width="50" height="44" rx="5" fill="#16a34a" opacity="0.85"/><text x="140" y="278" text-anchor="middle" font-size="13" fill="#fff">✓</text>
  <rect x="175" y="250" width="50" height="44" rx="5" fill="#16a34a" opacity="0.85"/><text x="200" y="278" text-anchor="middle" font-size="13" fill="#fff">✓</text>
  <rect x="235" y="250" width="50" height="44" rx="5" fill="#16a34a" opacity="0.85"/><text x="260" y="278" text-anchor="middle" font-size="13" fill="#fff">✓</text>
  <rect x="295" y="250" width="50" height="44" rx="5" fill="#16a34a" opacity="0.85"/><text x="320" y="278" text-anchor="middle" font-size="13" fill="#fff">✓</text>
  <rect x="355" y="250" width="50" height="44" rx="5" fill="#e2e8f0"/><text x="380" y="278" text-anchor="middle" font-size="13" fill="#94a3b8">✕</text>
  <text x="80" y="330" font-size="11" text-anchor="middle" fill="#475569">mat</text>
  <rect x="115" y="300" width="50" height="44" rx="5" fill="#16a34a" opacity="0.85"/><text x="140" y="328" text-anchor="middle" font-size="13" fill="#fff">✓</text>
  <rect x="175" y="300" width="50" height="44" rx="5" fill="#16a34a" opacity="0.85"/><text x="200" y="328" text-anchor="middle" font-size="13" fill="#fff">✓</text>
  <rect x="235" y="300" width="50" height="44" rx="5" fill="#16a34a" opacity="0.85"/><text x="260" y="328" text-anchor="middle" font-size="13" fill="#fff">✓</text>
  <rect x="295" y="300" width="50" height="44" rx="5" fill="#16a34a" opacity="0.85"/><text x="320" y="328" text-anchor="middle" font-size="13" fill="#fff">✓</text>
  <rect x="355" y="300" width="50" height="44" rx="5" fill="#16a34a" opacity="0.85"/><text x="380" y="328" text-anchor="middle" font-size="13" fill="#fff">✓</text>
  <text x="280" y="372" text-anchor="middle" font-size="11" fill="#0f172a">Green = allowed (past + self). Grey = blocked (future). This forces real prediction.</text>
</svg>
